<svg width="808" height="841" viewBox="0 0 808 841" fill="none" xmlns="http://www.w3.org/2000/svg">
<path d="M373.392 812.52C348.542 802.32 304.252 780.02 287.042 768.87C272.862 759.79 272.222 758.99 272.222 753.58C272.222 748.96 273.022 747.69 276.362 746.41C285.602 742.91 292.612 744.5 308.542 753.74C343.432 773.81 394.252 796.76 400.622 795.16C409.222 792.93 458.772 769.67 480.602 757.56C503.702 744.66 504.182 744.5 513.102 745.29C524.412 746.25 525.532 747.04 525.532 753.42C525.532 758.04 524.412 759.31 515.332 765.21C478.372 788.95 411.622 819.7 397.602 819.7C393.462 819.54 384.222 816.83 373.382 812.53L373.392 812.52Z" fill="#FDFBFA"/>
<path d="M175.522 673.6C141.432 633.93 110.682 577.85 92.9922 523.05C81.8422 488.8 72.9222 445.46 67.9822 403.09C65.2722 379.35 65.2722 285.51 67.9822 257.32C70.0522 236.13 70.2122 235.81 75.1522 231.51C81.0422 226.57 114.822 206.18 131.232 197.58C145.252 190.25 186.352 171.29 188.112 171.29C188.912 171.29 195.762 168.9 203.402 165.87C232.712 154.4 284.972 141.97 324.962 137.03C355.872 133.21 444.612 133.68 476.792 137.83C536.372 145.48 589.902 161.09 641.842 185.78C665.582 197.25 709.072 222.26 718.632 230.23C724.212 234.85 724.212 235.01 726.122 254.45C731.382 305.59 731.062 372.66 725.482 418.23C720.222 460.61 710.342 502.35 696.642 540.58C681.032 584.23 650.762 637.44 624.792 667.55C615.072 678.86 613.162 680.3 607.742 680.77C596.592 681.73 594.042 680.29 594.042 673.12C594.042 667.7 595.792 664.84 607.902 649.7C658.242 587.25 689.312 511.89 702.222 422.2C710.032 367.87 710.662 319.28 704.612 259.38L703.652 249.34L691.382 241.69C631.802 203.45 573.172 178.92 509.122 165.86C469.932 157.73 440.302 154.71 398.872 154.71C376.092 154.55 353.942 155.35 343.912 156.62C254.372 167.93 182.842 192.63 111.152 237.07L91.0822 249.5L89.9622 260.97C87.0922 293.47 85.6622 332.18 86.4622 351.3C91.7222 461.71 118.002 549.01 168.832 623.73C175.682 633.77 186.352 648.11 192.412 655.59C208.662 675.03 207.862 682.67 189.382 682.67C183.962 682.67 182.532 681.71 175.522 673.59V673.6Z" fill="#FDFBFA"/>
<path d="M268.242 649.54C241.162 635.36 227.142 625.01 203.562 601.43C165.482 563.35 144.612 525.91 133.462 475.25C128.362 451.99 127.412 404.35 131.712 379.18C143.342 311.15 181.892 252.84 241.802 212.54C285.612 183.07 329.422 169.21 386.782 167.13C468.992 163.94 541.482 192.46 596.602 249.82C630.532 284.87 650.452 322.15 661.282 370.74C664.472 385.24 664.942 391.29 664.942 423C664.942 462.51 663.672 471.91 653.792 502.02C633.562 563.99 582.742 621.98 522.042 652.57C507.222 660.06 508.022 660.06 464.212 654.8C452.902 653.53 438.242 652.41 432.032 652.41H420.402V644.44C420.402 637.75 421.202 631.54 424.382 616.4C425.022 613.85 426.772 612.74 431.872 611.94C435.692 611.3 444.772 609.07 452.262 606.84C474.092 600.63 475.522 600.95 488.422 614.97C494.472 621.5 499.892 626.92 500.532 626.92C501.172 626.92 534.782 608.28 536.222 607.16C536.542 607 534.472 601.27 531.922 594.41C529.212 587.72 527.142 579.12 527.142 575.61C527.142 569.56 528.102 568.12 541.482 555.06C558.532 538.17 559.482 538.01 579.882 547.09L593.582 553.14L602.182 538.64C606.802 530.67 611.582 522.55 612.852 520.64C614.762 517.45 614.122 516.66 602.022 506.3C589.272 495.63 589.122 495.31 589.752 489.09C590.072 485.59 591.822 476.98 593.572 469.97C595.482 462.96 597.392 455.47 597.872 453.24C598.672 449.42 599.782 448.94 615.712 446.39C625.112 444.96 633.392 443.2 634.192 442.41C634.992 441.61 635.312 431.42 635.152 419.63L634.672 398.28L623.522 396.37C617.472 395.41 609.182 394.14 605.202 393.5L598.032 392.54L593.412 374.7C585.762 344.91 585.282 346.98 599.942 336.15C606.792 331.05 612.532 326.75 612.842 326.43C613.642 325.79 610.292 319.9 600.092 304.13L590.692 289.47L579.222 294.09C572.852 296.64 564.562 298.55 560.582 298.71C553.572 298.71 552.772 298.23 540.192 285.49C524.902 270.04 524.262 267.49 531.912 249.8C537.492 236.9 538.602 238.81 515.182 224.63L499.892 215.39L487.462 227.66L474.872 240.09L467.222 239.45C462.922 238.97 453.682 237.22 446.672 235.31C439.662 233.4 432.012 231.49 429.782 231.17C425.962 230.37 425.482 229.26 422.772 213.96C421.342 204.88 419.272 196.59 418.472 195.64C417.202 194.21 410.822 193.57 396.332 193.57C376.422 193.57 375.782 193.73 374.982 197.23C374.502 199.14 372.912 207.27 371.322 215.07L368.452 229.41L355.072 232.76C347.582 234.67 338.342 237.38 334.522 238.81C322.092 243.43 320.342 242.79 307.122 228.14L295.172 214.76L276.692 226.55L258.052 238.34L263.632 250.29C271.602 267.81 271.442 268.61 255.032 284.86C242.442 297.45 240.532 298.72 234.962 298.72C231.772 298.72 224.132 296.65 218.072 293.94C212.022 291.39 206.602 289.16 205.802 289.16C204.212 289.16 182.702 322.14 182.382 325.01C182.382 326.13 187.322 330.9 193.372 335.52C207.072 346.19 207.392 348.11 201.182 374.39C197.042 392.39 196.882 392.71 191.942 393.51C189.232 393.83 180.952 395.1 173.462 396.22L159.922 398.29L159.442 420.28C158.962 445.61 157.372 443.54 179.042 446.89C186.052 448.01 192.742 449.44 194.022 450.08C196.572 451.35 203.422 475.41 204.692 487.68L205.652 495.96L193.222 506C186.212 511.42 180.792 516.67 181.112 517.47C182.702 522.73 201.182 552.04 202.942 552.04C204.062 552.04 210.112 549.97 216.482 547.26C223.012 544.55 230.982 542.48 234.642 542.48C240.852 542.48 242.132 543.44 255.192 556.5C271.442 572.75 271.442 573.07 263.632 593.46L258.372 606.84L276.052 616.88C285.612 622.46 293.892 626.92 294.212 626.92C294.532 626.92 299.312 622.14 304.722 616.41C313.802 606.53 315.082 605.74 322.402 605.1C327.982 604.62 335.782 605.74 348.692 609.08L367.012 613.86L369.722 626.45C371.152 633.3 372.432 641.74 372.432 645.41L372.592 651.94L353.152 653.06C342.322 653.54 326.382 655.13 317.622 656.41C290.542 660.23 288.152 659.91 268.232 649.56L268.242 649.54Z" fill="#FDFBFA"/>
<path d="M359.692 587.88C345.192 585.17 328.152 579.12 312.852 571.63C280.832 555.54 241.952 515.87 241.952 499.46C241.952 494.36 241.312 493.25 238.452 492.77C233.992 492.13 225.862 472.86 222.042 453.42C217.902 433.03 219.332 391.92 224.912 373.6C233.672 344.76 247.372 321.66 268.082 300.95C289.912 279.12 314.762 265.1 346.302 257.3C367.652 251.88 394.892 249.33 394.892 252.68C394.892 254.59 395.212 254.59 396.322 252.68C397.442 250.93 400.622 250.61 412.572 251.56C491.272 257.45 550.222 304.29 569.812 376.78C573.472 390.16 573.952 395.1 573.952 419.8C574.112 450.55 572.362 461.38 563.442 483.21C559.942 491.81 557.862 494.68 555.632 494.68C553.242 494.68 552.602 495.8 552.602 499.94C552.602 510.93 524.562 542.96 499.712 560.48C485.852 570.36 465.782 579.6 447.302 584.86C434.082 588.52 428.822 589.16 402.052 589.64C380.382 589.96 368.272 589.48 359.672 587.89L359.692 587.88ZM435.682 549.17C451.772 548.69 464.682 547.9 464.042 547.42C463.242 546.62 383.742 545.51 345.192 545.83C332.922 545.99 332.762 545.83 332.762 541.85C332.762 538.82 331.962 537.71 329.572 537.71C326.862 537.71 326.382 536.59 326.382 530.7C326.382 525.12 332.122 495.33 335.302 484.82C335.942 482.91 335.302 482.43 332.752 483.07C331.002 483.55 328.932 485.14 328.132 486.57C326.862 488.96 313.632 544.24 313.632 547.11C313.632 547.91 329.882 548.86 349.952 549.18C377.192 549.82 387.392 550.61 391.532 552.37C396.152 554.44 397.422 554.44 401.572 552.53C404.922 550.78 414.472 549.82 435.662 549.18L435.682 549.17ZM475.352 529.41C470.092 502.17 465.472 486.08 462.602 484.48C460.852 483.52 458.942 482.09 458.302 481.13C456.552 478.74 456.552 479.38 461.802 502.32C464.512 514.11 466.582 525.58 466.582 527.97C466.582 533.39 467.542 534.5 472.472 534.5C475.972 534.5 476.132 534.02 475.342 529.4L475.352 529.41ZM289.752 467.6C291.662 466.33 291.502 466.01 288.632 466.01C286.562 466.01 284.972 466.81 284.972 467.6C284.972 469.67 286.722 469.67 289.752 467.6ZM470.572 413.91C469.772 412.32 468.982 408.65 468.502 405.94C468.022 401.64 467.072 400.68 464.042 400.68C461.972 400.68 457.992 399.25 455.122 397.49L450.022 394.46L445.562 404.82C443.172 410.56 441.102 415.65 441.102 415.97C441.102 416.29 447.952 416.61 456.392 416.61C470.412 416.61 471.532 416.29 470.572 413.9V413.91ZM335.152 403.55C333.722 396.54 332.602 395.74 328.782 398.45C325.752 400.68 325.752 400.84 330.372 404.66C333.082 406.73 335.312 408.48 335.632 408.64C335.952 408.64 335.792 406.25 335.152 403.54V403.55ZM309.822 402.12C310.782 400.37 306.322 394.63 305.042 396.07C304.722 396.39 303.922 399.1 303.292 401.96C302.172 407.06 302.332 407.22 305.362 405.62C307.272 404.66 309.182 403.07 309.822 402.12ZM501.482 394.15C507.532 392.08 507.532 391.12 502.442 386.34C500.212 384.27 498.462 381.72 498.462 380.45C498.462 379.33 497.192 378.38 495.592 378.38C494.002 378.38 488.422 374.4 483.322 369.62C478.062 364.84 473.602 360.86 473.282 360.86C470.892 360.86 458.622 348.75 458.622 346.36C458.622 344.45 457.502 343.33 455.592 343.33C454.002 343.33 450.012 341.26 446.672 338.55C443.322 336 440.142 333.77 439.342 333.77C436.952 333.77 436.152 343.17 437.912 350.02C442.052 365 451.932 378.38 464.522 385.87C468.182 387.94 471.372 390.81 471.372 391.92C471.372 393.99 474.872 394.63 491.442 395.58C494.152 395.74 498.612 395.1 501.482 394.15ZM325.442 367.07C322.732 356.87 321.622 349.07 321.942 342.54C322.422 333.94 322.102 332.98 319.232 332.98C316.362 332.98 316.042 333.94 316.522 341.9C316.842 347.64 315.882 355.44 313.652 363.41C311.742 370.42 309.832 377.43 309.352 379.18C308.712 381.73 308.872 382.05 310.622 380.45C313.492 377.58 324.002 377.9 326.392 380.77C327.512 382.2 328.622 383 328.942 382.68C329.262 382.36 327.672 375.35 325.442 367.07Z" fill="#FDFBFA"/>
<path d="M71.8024 805.19C68.1424 803.28 63.9924 799.77 62.7224 797.22C60.0124 792.12 59.5324 778.74 61.9224 775.08C63.0424 773.17 62.5624 772.53 59.2124 771.89C55.2324 771.09 54.5924 769.34 44.8724 735.25C34.2024 697.49 32.9224 687.77 37.3824 678.53C41.5224 669.77 48.2124 666.74 63.3524 666.74C81.5124 666.74 83.9024 669.13 91.7124 694.62C94.9024 705.13 97.6024 713.9 97.7624 714.06C97.9224 714.38 100.792 713.1 104.292 711.51C112.732 707.53 143.002 696.85 175.822 686.34C292.602 649.38 405.712 641.73 528.712 662.92C572.362 670.41 624.302 684.91 674.962 703.7C689.142 708.96 701.092 713.1 701.412 712.78C701.732 712.46 704.282 704.97 707.152 696.21C713.842 675.66 715.752 672.15 721.492 669.13C728.502 665.47 747.942 665.94 754.472 669.93C768.012 678.06 767.852 690.8 754.312 736.84C744.912 768.38 743.802 771.09 740.292 771.57C736.632 772.05 736.632 772.37 737.102 783.52C737.582 793.56 737.262 795.63 734.072 799.61C728.812 806.3 721.802 808.53 706.672 808.53C691.382 808.53 688.032 807.57 661.262 795.15C599.132 766.47 548.302 751.18 482.512 741.78C407.472 730.95 331.322 734.93 253.572 753.57C230.792 758.99 188.892 772.37 176.302 778.1C172.482 779.85 164.832 783.2 159.092 785.59C153.352 787.82 143.002 792.6 135.992 796.26C116.082 806.14 107.792 808.53 92.3424 808.53C81.5124 808.53 77.2024 807.73 71.7924 805.18L71.8024 805.19ZM81.0424 763.13C81.0424 760.1 79.6124 760.1 75.6224 763.13C72.5924 765.36 72.5924 765.52 76.7424 765.52C79.4524 765.52 81.0424 764.72 81.0424 763.13ZM723.082 763.13C721.962 761.86 720.532 760.74 719.732 760.74C718.932 760.74 718.302 761.86 718.302 763.13C718.302 764.56 719.732 765.52 721.652 765.52C724.522 765.52 724.682 765.2 723.082 763.13ZM165.952 742.74C166.592 742.58 164.362 738.6 161.012 734.14C157.512 729.52 154.322 726.17 153.682 726.81C153.202 727.29 152.722 731.43 152.722 736.05V744.18L158.772 743.54C161.962 743.22 165.302 742.9 165.942 742.74H165.952ZM202.752 720.6C197.172 711.52 196.862 711.36 198.132 716.94C200.202 726.34 200.842 727.3 203.872 727.3C206.742 727.3 206.742 726.82 202.752 720.61V720.6ZM223.782 712.63C223.302 710.56 222.822 708.33 222.822 707.69C222.822 706.89 222.182 706.89 221.232 707.37C218.522 708.96 219.322 716.13 222.192 716.13C224.102 716.13 224.582 715.17 223.782 712.63ZM288.622 699.41C286.232 694.63 283.842 691.13 283.202 691.92C282.562 692.56 281.612 696.38 280.972 700.68L279.852 708.17H286.382H292.912L288.612 699.41H288.622ZM504.812 695.91C504.812 695.11 504.012 693.52 503.222 692.25C501.952 690.34 501.632 690.5 501.632 693.52C501.632 695.43 502.432 697.02 503.222 697.02C504.182 697.02 504.812 696.54 504.812 695.9V695.905V695.91Z" fill="#EFBB3E"/>
<path d="M165.952 742.74C166.592 742.58 164.362 738.6 161.012 734.14C157.512 729.52 154.322 726.17 153.682 726.81C153.202 727.29 152.722 731.43 152.722 736.05V744.18L158.772 743.54C161.962 743.22 165.302 742.9 165.942 742.74H165.952Z" fill="#EFBB3E"/>
<path d="M202.752 720.6C197.172 711.52 196.862 711.36 198.132 716.94C200.202 726.34 200.842 727.3 203.872 727.3C206.742 727.3 206.742 726.82 202.752 720.61V720.6Z" fill="#EFBB3E"/>
<path d="M223.782 712.63C223.302 710.56 222.822 708.33 222.822 707.69C222.822 706.89 222.182 706.89 221.232 707.37C218.522 708.96 219.322 716.13 222.192 716.13C224.102 716.13 224.582 715.17 223.782 712.63Z" fill="#EFBB3E"/>
<path d="M288.622 699.41C286.232 694.63 283.842 691.13 283.202 691.92C282.562 692.56 281.612 696.38 280.972 700.68L279.852 708.17H286.382H292.912L288.612 699.41H288.622Z" fill="#EFBB3E"/>
<path d="M504.812 695.905C504.809 695.103 504.011 693.518 503.222 692.25C501.952 690.34 501.632 690.5 501.632 693.52C501.632 695.43 502.432 697.02 503.222 697.02C504.18 697.02 504.809 696.543 504.812 695.905Z" fill="#EFBB3E"/>
<path d="M80.7224 814.27C68.2924 810.92 59.8525 803.6 55.2325 792.28C54.2725 789.89 54.9125 789.41 60.1725 789.41C64.9525 789.41 66.5425 790.21 67.9825 793.23C70.5325 798.81 82.0025 803.74 92.5125 803.74C102.712 803.74 113.542 800.24 131.542 791.15C147.792 783.02 151.142 782.87 151.142 789.56C151.142 794.18 150.342 794.82 131.702 803.74C113.702 812.5 100.312 816.64 91.5525 816.33C89.8025 816.33 84.8624 815.37 80.7224 814.26V814.27Z" fill="#0D4573"/>
<path d="M694.092 814.11C689.152 812.84 674.332 806.78 660.952 800.57C630.682 786.39 614.912 780.02 595.312 773.49L579.702 768.39V762.81C579.702 757.39 579.862 757.39 584.962 758.35C596.432 760.9 637.062 777.15 678.482 795.95C701.742 806.46 719.422 806.46 728.512 795.63C733.612 789.58 736.952 789.74 738.232 795.95C739.192 800.09 738.552 801.69 734.412 805.99C728.832 811.88 717.042 816.66 708.762 816.35C705.732 816.35 699.202 815.23 694.102 814.12L694.092 814.11Z" fill="#0D4573"/>
<path d="M383.902 796.75C382.782 795.32 380.712 794.2 379.602 794.2C378.332 794.2 377.372 792.93 377.372 791.33C377.372 789.1 376.252 788.62 371.322 789.1C366.862 789.58 361.602 787.98 349.812 782.41C334.362 775.24 334.202 775.08 334.672 769.98C335.152 765.36 335.792 764.72 341.522 763.45C348.532 762.02 360.802 763.29 362.232 765.68C362.872 766.48 364.622 767.11 366.372 767.11C367.962 767.11 369.402 768.23 369.402 769.5C369.402 770.77 370.832 771.89 372.592 771.89C374.822 771.89 375.942 773.32 376.732 777.47C377.852 783.36 379.602 784.48 381.832 780.66C382.952 778.59 385.492 778.43 396.972 779.23C404.622 779.87 410.832 780.82 410.832 781.46C410.832 782.1 412.582 783.21 414.812 783.69C418.002 784.49 418.792 785.76 418.792 789.43C418.792 795.8 414.812 797.56 399.032 798.51C388.362 799.31 385.652 798.99 383.892 796.76L383.902 796.75Z" fill="#0D4573"/>
<path d="M91.0824 789.74C88.2124 789.26 87.4224 788.15 87.4224 784.8C87.4224 779.06 88.6924 777.95 92.3624 780.34C96.9824 783.21 107.182 777.47 107.812 771.42C108.292 767.44 108.932 766.96 113.392 767.44C118.012 767.92 118.492 768.4 118.012 772.54C116.742 784.01 104.472 791.82 91.0923 789.75L91.0824 789.74Z" fill="#0D4573"/>
<path d="M690.112 786.23C684.222 782.73 679.122 774.28 681.832 772.53C683.102 771.89 682.952 771.1 681.512 770.14C679.762 769.18 681.032 763.93 687.722 744.49C692.342 731.11 696.002 719.64 696.002 719.16C696.002 718.52 690.582 716.13 684.052 713.74C672.902 709.6 672.102 708.96 672.102 704.82C672.102 700.84 672.742 700.2 676.402 700.2C678.792 700.2 685.002 701.79 690.102 703.86C699.342 707.36 699.342 707.36 698.862 713.42C698.382 718.2 698.862 719.31 701.092 719.31C704.752 719.31 704.752 722.97 701.092 733.81C699.342 738.59 697.592 744.32 696.952 746.87L695.992 751.17H705.552C716.382 751.17 721.802 753.4 732.322 762L739.172 767.58L735.192 771.72C731.372 775.38 731.052 775.54 728.182 772.99C723.882 769.01 721.972 769.64 719.902 775.7C718.942 778.73 716.712 783.03 714.962 785.26C712.252 788.76 710.342 789.4 703.492 789.4C698.072 789.4 693.452 788.28 690.112 786.21V786.23ZM707.482 778.74C710.352 775.55 713.852 764.08 712.582 762.01C712.102 761.37 708.282 760.74 703.822 760.74C696.172 760.74 689.642 764.4 689.642 768.87C689.642 772.53 693.302 777 698.082 779.07C704.612 781.94 704.612 781.94 707.482 778.75V778.74Z" fill="#0D4573"/>
<path d="M393.462 776.04C392.342 774.77 391.712 770.94 392.032 767.6C392.512 762.02 392.832 761.55 398.082 761.07C404.772 760.43 407.642 763.62 407.642 772.22C407.642 778.11 407.482 778.27 401.432 778.27C398.082 778.27 394.422 777.31 393.462 776.04Z" fill="#0D4573"/>
<path d="M68.3022 770.78C68.3022 758.51 78.9722 750.23 92.6822 752.14C106.222 753.89 106.542 754.05 106.542 759.31C106.542 763.45 106.222 763.93 103.512 762.34C99.6922 760.43 90.6122 760.27 87.7422 762.18C86.4722 762.98 85.8322 765.68 86.1522 768.87C86.6322 773.81 86.1522 774.29 82.3322 774.76C79.1422 775.08 77.8722 774.6 77.8722 772.85C77.8722 769.5 74.8422 769.66 71.1822 773.01C68.4722 775.4 68.3122 775.4 68.3122 770.78H68.3022Z" fill="#0D4573"/>
<path d="M514.382 759.15C514.382 758.35 515.812 756.92 517.572 755.96C521.872 753.73 520.442 751.82 513.752 750.54C509.452 749.74 506.582 750.38 500.532 753.73C492.252 758.35 484.122 758.19 484.122 753.57C484.122 752.3 483.482 751.18 482.532 751.18C481.732 751.18 480.942 747.99 480.942 744.01C480.942 737.16 481.262 736.84 485.402 736.84C494.962 737 523.952 742.89 526.342 745.28C529.532 748.63 529.532 758.5 526.182 759.78C522.202 761.21 514.392 760.9 514.392 759.14L514.382 759.15Z" fill="#0D4573"/>
<path d="M375.142 753.41C374.662 751.98 374.182 748.79 374.182 746.24C374.182 740.98 377.842 738.91 389.002 737.32C392.662 736.68 394.892 735.57 394.892 734.13C394.892 732.22 396.322 731.9 401.742 732.7C405.402 733.18 411.142 733.66 414.332 733.66C423.252 733.5 429.942 739.08 429.942 746.56C429.942 751.82 429.462 752.45 424.842 753.41C422.132 753.89 415.442 753.89 410.022 753.41C403.332 752.77 399.662 752.93 399.032 754.21C398.392 755.17 393.292 755.96 386.922 755.96C378.482 755.96 375.932 755.32 375.132 753.41H375.142Z" fill="#0D4573"/>
<path d="M644.382 699.41C633.872 695.75 624.942 691.92 624.622 690.81C623.822 688.26 627.332 684.28 630.512 684.28C631.942 684.28 641.182 686.99 651.062 690.17L668.902 696.06V701.32C668.902 708.01 668.422 708.01 644.372 699.41H644.382Z" fill="#0D4573"/>
<path d="M594.522 683.95C588.942 682.2 584.482 679.81 584.482 678.69C584.482 673.75 595.952 670.09 599.772 673.91C602.962 676.94 607.422 676.94 609.972 673.91C613.162 670.09 614.752 671.2 614.752 677.1C614.752 681.72 614.112 682.68 611.402 682.68C609.492 682.68 607.102 683.64 606.142 684.75C604.712 686.66 602.642 686.5 594.512 683.95H594.522Z" fill="#0D4573"/>
<path d="M483.322 661.81C472.012 660.22 459.582 658.94 455.922 658.94C448.272 658.78 447.002 657.51 448.432 651.61C449.232 648.11 450.022 647.63 454.482 648.26C457.192 648.74 470.412 650.33 483.792 651.76L508.012 654.63V659.89C508.012 663.08 507.212 664.99 506.102 664.99C504.982 664.83 494.792 663.4 483.322 661.8V661.81Z" fill="#0D4573"/>
<path d="M296.122 658.94C296.122 654.64 296.762 654 302.012 653.05C305.512 652.41 308.862 652.73 310.612 653.85C312.362 654.81 315.392 655.6 317.622 655.6C320.012 655.6 321.602 656.56 321.602 657.99C321.602 660.22 319.532 660.7 303.762 662.77L296.112 663.73V658.95L296.122 658.94Z" fill="#0D4573"/>
<path d="M327.982 656.23C327.982 654.32 328.942 651.93 330.212 650.97C334.832 647.15 383.742 649.22 383.742 653.2C383.742 656.07 378.482 657.18 363.832 657.18C356.822 657.34 345.832 657.98 339.612 658.61C328.462 659.73 327.982 659.57 327.982 656.22V656.23Z" fill="#0D4573"/>
<path d="M420.862 656.07C417.992 655.59 417.202 654.32 417.202 650.49C417.202 645.71 417.362 645.71 423.252 646.67C426.442 647.15 430.422 647.63 432.012 647.63C433.922 647.63 434.722 648.9 434.722 652.41C434.722 656.71 434.242 657.19 429.622 657.03C426.752 656.87 422.772 656.39 420.862 656.07Z" fill="#0D4573"/>
<path d="M190.492 547.26L184.752 537.7H191.762C197.972 537.7 198.932 538.18 199.892 541.52C201.162 546.78 200.052 555.7 197.982 556.34C197.022 556.66 193.682 552.68 190.492 547.26Z" fill="#0D4573"/>
<path d="M388.522 542.32C388.522 541.36 389.642 540.89 390.912 541.52C392.822 542.16 393.302 540.56 393.302 532.12C393.302 523.99 393.783 521.76 395.693 521.76C397.443 521.76 398.082 523.83 398.082 530.36C398.082 535.14 398.562 540.08 399.042 541.51C399.842 543.58 398.882 544.06 394.262 544.06C391.072 544.06 388.522 543.26 388.522 542.31V542.32Z" fill="#0D4573"/>
<path d="M447.952 446.41C439.192 442.11 437.912 440.83 437.912 437.01C437.912 430.96 442.052 431.12 454.002 437.49C462.132 441.79 463.402 443.23 463.402 447.05C463.402 453.1 460.692 452.94 447.952 446.41Z" fill="#0D4573"/>
<path d="M433.132 419.81C433.132 418.85 435.362 412.8 438.072 406.27C443.172 394.32 443.172 394.32 449.222 394.32H455.432V402.29C455.432 409.78 455.752 410.26 459.412 410.26C462.912 410.26 463.392 410.9 463.392 415.84V421.42H448.252C439.012 421.42 433.112 420.78 433.112 419.83L433.132 419.81Z" fill="#0D4573"/>
<path d="M497.972 356.72C497.492 350.03 496.702 344.29 496.222 343.82C495.742 343.34 494.152 343.82 492.722 344.94C490.492 346.85 490.332 346.53 490.812 341.59C491.452 336.65 491.932 336.17 497.502 335.7C502.922 335.22 503.392 335.38 501.802 338.25C500.682 340.16 500.532 346.38 501.322 355.14C502.282 365.02 502.122 368.84 500.682 368.84C499.562 368.84 498.612 364.22 497.972 356.73V356.72Z" fill="#0D4573"/>
<path d="M310.462 82.0602C310.462 72.0202 310.782 70.9102 313.652 70.9102C316.522 70.9102 316.842 72.0302 316.842 82.0602C316.842 92.1002 316.522 93.2102 313.652 93.2102C310.782 93.2102 310.462 92.0902 310.462 82.0602Z" fill="#0D4573"/>
<path d="M452.252 72.6599C452.252 67.7199 453.372 65.1699 457.832 60.5499C462.612 55.4499 464.042 54.6599 468.502 55.4499C471.372 55.9299 476.782 56.8799 480.612 57.3599C484.272 57.9999 487.302 59.1099 487.302 59.9099C487.302 60.7099 488.732 61.3399 490.492 61.3399C493.042 61.3399 493.682 62.4599 493.682 66.9199C493.682 72.8099 491.292 74.2499 488.102 69.9499C486.832 68.0399 482.842 67.0799 474.402 66.4499L462.452 65.8099L459.582 72.3399C455.602 80.7799 452.252 80.9399 452.252 72.6599Z" fill="#0D4573"/>
<path d="M369.403 828.61C327.183 811.09 299.303 796.43 265.693 774.12L245.463 760.9L234.633 763.93C228.583 765.68 222.203 767.75 220.453 768.55C218.703 769.35 214.403 770.78 210.893 771.58C201.813 773.81 175.843 783.37 165.483 788.31C142.063 799.3 136.643 800.58 143.493 792.93L147.153 788.95L142.053 789.75C134.243 790.87 138.073 787.52 150.653 782.26C156.703 779.87 165.473 776.05 170.253 773.98C185.073 767.29 225.213 754.54 248.793 748.81C360.953 721.89 474.863 725.23 586.063 758.69C603.273 763.79 641.023 778.76 666.043 790.39C692.013 802.34 696.313 803.77 708.583 803.93C717.983 804.09 718.463 804.25 713.843 805.52C705.873 807.91 694.083 805.04 671.943 795.32C661.113 790.54 650.433 786.08 648.203 785.44C645.973 784.8 640.873 782.57 636.733 780.5C626.693 775.4 603.753 767.12 599.773 767.12C597.863 766.96 593.723 766 590.533 764.89C587.183 763.62 584.483 763.3 584.483 764.09C584.483 764.73 587.193 766.16 590.533 767.12C597.223 769.03 602.803 772.7 600.893 773.97C600.093 774.45 592.133 772.38 583.213 769.51C574.133 766.64 563.303 763.3 558.993 762.34L551.183 760.43L532.223 773.33C521.713 780.5 512.313 787.35 511.193 788.62C510.073 789.89 508.163 791.01 506.893 791.01C504.343 791.01 475.193 806.15 471.203 809.65C467.223 813 457.343 817.78 451.763 819.05C448.893 819.53 442.043 822.24 436.313 824.79C430.573 827.34 424.523 830.05 422.773 830.84C417.193 833.07 398.083 840.4 397.603 840.4C397.443 840.4 384.703 835.14 369.403 828.61ZM417.513 807.58C440.773 798.18 482.993 777.31 499.243 767.11C506.253 762.81 514.533 758.03 517.563 756.6C524.733 753.25 524.573 753.57 521.223 749.75C519.793 747.84 516.603 746.4 514.213 746.4C511.983 746.4 508.003 745.76 505.453 744.97C502.903 744.17 497.483 743.06 493.343 742.58C487.453 741.94 485.693 742.26 485.693 743.85C485.693 745.12 486.813 746.56 488.243 747.04C489.513 747.52 490.313 748.63 489.673 749.59C489.193 750.39 491.103 751.66 493.973 752.46L499.073 753.73L494.133 757.23C480.753 766.79 405.073 802.16 398.063 802.16C391.053 802.16 332.583 775.08 303.593 758.35C290.843 751.02 287.183 749.59 283.363 750.38C280.813 751.02 278.263 752.13 277.783 752.93C276.193 755.32 304.553 772.69 333.543 787.02C359.193 799.92 393.443 814.74 397.593 814.9C398.713 814.9 407.633 811.71 417.503 807.57L417.513 807.58ZM399.513 792.6C398.083 791.64 398.083 790.69 400.153 788.78C401.423 787.35 403.183 786.23 403.813 786.23C404.453 786.23 404.613 786.71 403.973 787.19C402.383 788.78 407.163 792.61 410.663 792.61C415.123 792.61 414.963 789.9 410.503 788.47C408.433 787.83 406.363 786.56 405.723 785.6C404.923 784.33 403.653 784.33 401.263 785.92C399.513 787.04 398.073 787.19 398.073 786.4C398.073 785.6 396.643 785.28 394.883 785.76C393.133 786.24 390.743 785.92 389.623 785.12C388.353 784 386.753 784.48 385.003 786.55C382.773 788.62 382.613 789.42 384.363 789.42C385.483 789.42 387.233 790.38 388.183 791.49C389.143 792.45 392.483 793.56 395.673 793.56C399.173 793.72 400.773 793.24 399.493 792.6H399.513ZM371.953 782.72C372.753 781.6 372.433 781.45 370.993 782.24C369.563 783.2 369.403 782.56 370.193 779.69C371.313 776.34 371.153 776.19 368.923 777.94C366.693 779.85 366.213 779.53 365.263 775.87C364.463 772.84 363.353 771.89 361.283 772.37C359.693 772.85 358.093 772.21 357.623 771.1C356.503 768.07 349.813 767.44 347.743 770.3C346.153 772.05 345.353 772.21 343.443 770.62C341.693 769.19 340.733 769.03 339.943 770.3C339.303 771.26 339.303 772.53 339.783 773.01C340.263 773.65 340.743 773.17 340.743 772.21C340.743 771.25 342.653 772.21 345.043 774.44C348.393 777.63 350.303 778.1 354.763 777.31C359.063 776.51 360.023 776.67 359.063 778.27C357.473 780.82 362.253 784.64 367.193 784.64C369.263 784.64 371.333 783.84 371.973 782.73L371.953 782.72ZM402.863 772.21C402.863 771.41 401.903 769.66 400.793 767.91C399.203 765.84 398.243 765.52 397.443 766.95C396.803 767.91 397.123 769.82 398.083 771.09C400.153 773.64 402.863 774.28 402.863 772.21ZM385.813 748.47C387.243 748.47 388.523 749.11 388.523 749.9C388.523 752.29 392.663 751.17 396.173 747.99C398.083 746.24 400.633 744.8 402.063 744.8C405.413 744.8 405.093 739.06 401.743 737.63C399.353 736.83 399.193 736.99 400.943 738.59C404.133 741.94 403.173 742.89 396.963 742.41C393.613 742.25 389.473 742.57 387.723 743.37C385.973 744.01 385.493 744.64 386.603 744.64C387.723 744.8 388.193 745.6 387.723 746.39C387.083 747.51 385.813 747.51 383.903 746.39C380.403 744.64 378.803 745.75 380.083 749.1C380.563 750.37 381.513 750.69 381.993 749.9C382.473 749.1 384.223 748.47 385.813 748.47ZM424.213 747.51C424.693 747.99 425.173 747.83 425.173 747.03C425.173 746.07 423.103 743.84 420.393 741.93C417.203 739.54 415.933 739.06 416.573 740.81C417.843 743.84 412.433 744.16 409.403 741.29C407.653 739.7 407.333 739.7 408.283 741.29C408.923 742.25 408.603 743.2 407.803 743.2C406.843 743.2 406.053 744.32 406.053 745.75C406.053 747.66 407.173 748.14 409.873 747.66C412.103 747.18 414.653 747.5 415.763 748.14C416.883 748.78 418.953 748.78 420.543 747.98C421.973 747.18 423.573 747.02 424.203 747.5L424.213 747.51Z" fill="#053A6A"/>
<path d="M731.692 806.47C732.812 803.92 733.442 800.58 733.122 798.82C732.162 795.63 732.162 795.63 728.822 798.82C723.082 804.24 722.292 802.64 727.702 796.59C733.592 789.9 734.072 783.05 729.612 775.72L726.582 770.62L730.242 767.12C733.432 764.09 734.542 763.77 736.612 765.53C738.522 767.12 739.162 767.12 739.642 765.37C746.012 746.41 759.712 696.07 759.712 692.08C759.712 685.23 754.772 677.1 748.722 673.92C742.192 670.57 731.352 670.89 725.302 674.56C719.562 678.06 718.292 680.93 705.392 721.24C700.612 735.9 696.312 748.01 695.672 748.01C695.032 748.01 695.512 744.66 696.792 740.52C699.342 732.08 699.822 724.11 697.912 724.11C696.792 724.11 686.922 751.67 684.692 761.23C683.892 764.58 684.212 765.53 685.652 764.89C686.922 764.41 688.682 766.64 690.112 770.47C692.022 775.25 694.092 777.32 699.512 779.71C704.452 781.94 705.402 782.9 702.862 782.9C700.952 783.06 697.282 781.31 694.732 779.08C690.592 775.73 689.792 775.42 687.082 777.33C684.212 779.56 684.212 779.72 687.242 783.22C689.792 786.41 689.952 786.57 687.562 784.81C683.742 781.78 680.072 774.61 680.072 769.99C680.072 768.08 683.732 755.81 688.202 742.91C696.012 720.61 696.332 719.17 693.622 717.1C691.392 715.51 691.232 714.71 692.822 713.75C694.092 712.95 692.342 711.36 687.242 708.81C678.642 704.35 677.202 704.19 677.522 707.22C677.522 708.49 677.202 709.61 676.402 709.77C673.692 710.09 662.542 705.95 662.542 704.67C662.542 703.87 661.582 703.71 660.632 704.19C659.512 704.83 659.992 704.03 661.592 702.76C664.142 700.69 664.302 700.21 662.232 700.21C660.962 700.21 658.882 699.09 657.772 697.82C655.382 694.95 634.672 688.42 632.442 689.69C631.482 690.33 631.012 691.6 631.322 692.72C631.482 693.84 631.482 694.15 631.162 693.36C630.682 692.72 629.892 692.56 629.092 693.04C628.132 693.68 600.572 686.35 598.982 684.91C598.662 684.59 599.302 683.32 600.252 682.04C602.002 679.97 601.522 679.49 598.022 678.54C595.312 677.9 592.922 678.22 591.492 679.66C589.582 681.73 586.392 681.25 568.232 676.79C556.602 673.92 537.002 669.94 524.742 667.87C507.222 664.84 502.602 663.57 502.912 661.66C503.232 659.91 501.162 658.95 494.942 658.16C490.322 657.68 482.512 656.57 477.732 655.77C471.842 654.81 468.332 654.97 466.902 656.09C465.152 657.52 465.152 658.16 467.702 659.12C470.252 660.24 470.252 660.39 467.382 659.92C465.472 659.6 464.352 658.49 464.672 657.05C464.832 655.14 463.872 654.66 460.212 655.3C456.862 655.78 455.432 655.3 455.272 653.87C455.272 652.6 454.472 653.39 453.682 655.46C452.722 657.85 451.452 658.81 449.702 658.17C448.272 657.69 442.532 657.21 436.642 657.21C428.512 657.21 426.602 656.73 428.042 655.3C431.072 652.27 430.272 650.84 425.972 650.84C423.422 650.84 421.992 651.8 421.992 653.39C421.992 655.62 418.172 655.78 386.462 654.98C337.552 653.71 337.392 653.71 333.892 656.89C330.542 659.92 305.692 662.47 306.172 659.76C306.332 658.8 305.212 657.85 303.622 657.53C301.232 657.05 300.752 657.53 301.552 659.92C302.352 662.63 301.072 663.11 290.242 665.02C264.912 669 230.182 676.65 208.992 682.7C168.682 694.17 109.262 714.56 105.282 718.39C103.852 719.82 104.802 724.6 110.702 741.65C114.682 753.44 118.032 766.03 118.032 769.53C118.192 776.54 114.532 783.71 109.592 786.42C105.292 788.65 105.772 785.46 110.712 778.93C116.452 771.44 114.212 770.17 106.892 776.86C103.702 779.89 102.592 780.36 104.662 778.13C106.572 775.9 108.162 772.24 108.162 770C108.162 764.42 99.5624 757.57 92.5524 757.57C87.4524 757.57 81.8824 754.22 83.7924 752.15C84.4324 751.67 89.0524 751.19 94.3024 751.19C102.582 751.19 103.542 750.87 102.582 748.48C102.102 746.89 97.0024 730.96 91.2724 712.95C79.3224 674.55 77.2524 671.53 63.3924 671.53C57.9724 671.53 53.3524 672.65 50.0124 674.72C44.7524 678.07 39.6524 686.35 39.6524 691.77C39.6524 694.16 56.7024 756.77 59.7224 765.37C60.2024 767.12 61.4724 766.64 64.8224 763.62C75.1824 754.06 83.9424 751.67 78.5224 760.12C77.0924 762.19 76.4524 763.94 76.9324 763.94C77.5724 763.94 75.5024 767.29 72.3124 771.43C65.4624 780.51 64.1824 784.81 66.7324 791.03C69.9224 798.52 78.3624 802.82 93.0224 803.93L105.772 805.05L93.0224 804.57C79.9624 804.25 70.7224 801.7 65.4624 796.92C62.1124 793.89 58.7724 793.42 58.7724 795.96C58.7724 799.46 55.7424 795.48 54.7924 790.54C54.1524 787.83 47.9424 765.37 40.9324 740.83C30.5724 704.98 28.3424 694.95 28.8224 688.73C30.4124 672.8 45.2324 660.37 62.6024 660.37C79.0124 660.37 89.8424 668.97 94.6224 685.38C101.472 709.6 100.202 707.68 107.682 704.82C110.072 703.7 123.772 698.93 137.952 693.99L163.922 684.91L156.272 675.51C90.6324 593.78 55.4224 493.57 47.4624 366.44C44.5924 319.76 49.5324 229.27 55.2724 223.53C61.1624 217.79 105.452 191.35 130.472 178.6C196.272 145.14 262.382 125.87 339.652 117.74C373.432 114.24 444.482 115.35 479.372 120.13C556.002 130.64 625.462 154.38 691.902 192.62C709.582 202.98 737.942 221.46 740.332 224.32C741.292 225.44 743.042 239.14 744.472 254.91C751.322 333.45 748.612 396.86 735.712 462.02C719.782 542.47 688.072 614.01 643.472 670.56C638.052 677.41 634.232 683.46 635.032 684.1C635.672 684.74 643.472 687.76 652.242 690.63C661.002 693.5 674.862 698.28 682.992 701.3C691.272 704.33 698.132 706.56 698.442 706.24C698.602 705.92 700.672 699.55 703.062 692.06C708.162 675.33 712.302 668.8 721.382 664.02C735.882 656.37 754.522 660.52 765.192 673.58C768.852 678.2 770.132 681.39 770.612 688.72C771.092 696.53 769.492 703.7 759.142 738.43C752.612 760.73 746.082 783.2 744.642 788.3C742.892 794.99 740.182 799.61 735.722 804.23C730.462 809.97 729.832 810.28 731.742 806.46L731.692 806.47ZM197.662 674.87C198.302 674.23 193.842 667.7 187.622 660.37C140.782 603.97 107.642 531.32 92.1924 450.87C81.2024 393.36 78.8124 326.13 85.3424 255.39L86.3024 244.72L106.372 232.29C178.062 187.84 249.602 163.15 339.132 151.84C349.492 150.57 372.272 149.77 398.872 149.77C445.392 149.93 473.112 152.64 513.902 161.08C577.952 174.14 636.572 198.68 696.162 236.91L708.432 244.56L709.392 254.6C718.792 347 712.102 432.08 689.482 507.28C673.392 560.97 646.622 612.27 612.692 654.49C598.832 671.7 597.082 674.72 600.902 674.72C602.172 674.72 602.022 675.36 600.422 676.31C598.672 677.43 599.622 677.9 604.242 677.9C607.742 677.9 610.132 677.42 609.502 676.94C609.022 676.46 613.642 670.09 619.862 663.08C654.112 623.41 686.772 559.37 703.982 498.51C710.032 476.68 717.522 438.77 720.712 413.28C725.972 370.26 726.292 307.18 721.512 259.22C719.442 239.78 719.442 239.62 713.862 235C704.302 227.03 660.812 202.02 637.072 190.55C585.132 165.86 531.602 150.24 472.022 142.6C440.002 138.46 360.342 137.98 329.752 141.8C289.762 146.74 237.512 159.17 208.192 170.64C200.542 173.67 193.692 176.06 192.902 176.06C191.152 176.06 150.042 195.02 136.022 202.35C119.612 210.95 85.8424 231.35 79.9424 236.28C75.0024 240.58 74.8424 240.9 72.7724 262.09C70.0624 289.81 70.0624 374.89 72.7724 398.31C77.5524 440.53 86.6324 484.02 97.7824 518.27C115.462 573.07 146.212 629.15 180.312 668.82C187.322 676.95 188.912 678.06 192.422 677.1C194.652 676.46 197.042 675.51 197.682 674.87H197.662ZM312.852 651.61C321.612 650.34 337.542 648.74 348.222 648.26L367.822 647.14L366.702 640.61C366.222 636.95 364.952 630.57 363.992 626.43L362.242 618.62L344.242 614C333.882 611.29 324.482 609.86 322.252 610.34C320.182 610.82 313.972 616.08 308.712 621.97C303.452 627.71 298.042 633.12 296.762 633.76C294.212 635.19 251.512 611.62 251.512 608.75C251.672 607.79 254.382 599.83 257.722 591.07L263.932 575.14L250.232 561.28C242.582 553.47 235.732 547.26 234.782 547.26C233.982 547.26 225.862 550.13 216.782 553.79C200.852 560.16 200.372 560.32 197.182 557.45C195.112 555.54 194.312 553.31 194.792 550.12C195.112 547.73 194.792 545.66 193.992 545.66C193.032 545.66 192.722 545.02 193.192 544.39C193.672 543.59 193.032 542.96 191.762 542.96C190.172 542.96 190.012 543.76 191.122 545.99C191.922 547.58 192.392 548.86 191.922 548.86C191.282 548.86 179.332 528.47 174.552 519.07L171.842 514.13L186.342 502.66C198.612 492.94 200.682 490.71 199.722 487.84C199.242 485.93 197.172 477.96 195.102 470.16C193.032 462.35 190.322 455.5 189.212 454.87C187.942 454.23 181.242 452.8 174.232 451.68C152.402 448.33 154.162 451.2 154.632 420.29L155.112 393.52L168.652 391.45C176.142 390.33 184.422 389.06 187.132 388.74C192.072 387.94 192.232 387.62 196.372 369.62C198.762 359.58 200.352 350.66 199.722 349.71C199.242 348.91 193.032 343.82 186.022 338.56C179.172 333.14 173.432 328.36 173.432 327.89C173.432 324.07 201.152 281.21 203.702 281.21C204.502 281.21 210.552 283.6 217.082 286.63C236.682 295.55 234.132 296.03 249.902 280.42L263.922 266.56L257.552 252.22C254.052 244.41 251.662 237.08 251.972 235.81C253.092 233.1 292.912 207.93 296.102 207.93C297.372 208.09 304.072 214.46 311.082 222.27L323.512 236.29L330.202 233.9C333.702 232.63 342.792 229.92 350.272 228.01L363.652 224.66L366.522 210.32C368.112 202.51 369.712 194.39 370.182 192.48C370.982 188.82 371.452 188.82 396.312 188.82C414.632 188.82 421.962 189.3 423.082 190.89C424.042 191.85 425.952 199.97 427.542 208.73C430.412 224.98 431.522 227.05 437.102 227.05C438.852 227.05 446.982 228.96 455.102 231.19L470.082 235.49L483.942 221.63C491.432 214.14 498.282 207.93 499.082 207.93C502.582 207.93 543.052 234.38 543.052 236.61C543.052 237.88 540.502 245.37 537.312 253.02L531.422 267.04L544.802 280.58C552.132 287.91 559.142 293.96 560.572 293.96C561.842 293.96 569.012 291.41 576.502 288.38C583.992 285.35 591.002 282.8 592.112 282.8C594.982 282.8 621.112 323.43 621.112 328.05C621.112 328.37 614.742 333.47 606.932 339.2L592.912 349.71L597.372 365.96C599.922 374.88 601.992 383.33 601.992 384.92C601.992 387.15 603.742 387.95 609.642 388.74C613.782 389.38 622.232 390.65 628.282 391.61L639.432 393.52L639.912 419.65C640.072 434.15 639.752 446.42 638.952 447.21C638.152 448.01 629.872 449.76 620.472 451.19C604.542 453.74 603.422 454.22 602.632 458.04C602.152 460.27 600.242 467.76 598.492 474.77C596.742 481.78 595.142 488.31 594.992 489.27C594.992 490.23 601.202 496.6 608.852 503.29L622.872 515.72L616.982 526.23C606.782 544.55 596.112 560.8 594.682 560.48C593.882 560.32 585.922 556.82 577.002 552.83L560.752 545.5L546.252 559.68C538.442 567.49 531.912 574.66 531.912 575.61C531.912 576.57 534.462 583.89 537.492 591.86C540.522 599.83 543.072 607.47 543.072 608.59C543.072 610.66 502.292 634.88 499.102 634.88C498.302 634.88 491.932 628.67 484.922 621.18L472.172 607.32L457.832 611.46C449.862 613.69 440.462 616.08 436.642 616.72C431.542 617.52 429.792 618.63 429.152 621.18C423.262 649.7 421.822 646.99 443.972 648.1C454.172 648.58 472.012 650.17 483.482 651.6L504.352 654.31L517.252 647.78C577.952 617.19 628.772 559.2 649.002 497.23C658.562 468.08 660.152 457.4 660.152 422.99C660.152 389.53 657.922 375.04 648.842 346.84C627.492 281.36 570.932 221.78 503.232 193.1C454.162 172.55 399.992 166.65 346.622 176.21C273.972 189.27 207.542 234.68 168.662 297.93C152.252 324.54 141.892 352.26 136.482 383.96C133.772 400.05 133.452 407.22 134.092 429.37C135.842 478.28 148.272 517.31 175.512 558.1C189.212 578.81 223.622 613.86 242.742 626.92C258.192 637.43 289.422 654 293.722 653.84C295.472 653.84 304.082 652.88 312.842 651.61H312.852ZM442.532 580.08C472.322 571.8 494.942 558.57 519.002 535.47C533.022 521.93 548.792 501.38 546.722 499.31C545.452 498.04 505.302 476.53 468.662 457.25C451.452 448.33 445.882 443.71 454.642 445.94C460.382 447.37 459.582 446.1 451.612 441.48C443.172 436.54 443.012 436.54 443.332 440.21C443.332 441.64 442.852 442.76 441.902 442.6C441.102 442.44 430.752 437.18 419.282 431.13C407.652 424.92 397.612 419.82 396.822 419.82C395.552 419.82 363.362 436.23 317.642 460.13C282.752 478.45 246.742 498.37 246.742 499.48C246.742 502.51 260.602 520.83 270.962 531.66C291.192 552.37 313.502 566.87 340.582 576.59C360.342 583.76 373.722 585.51 402.082 584.87C423.432 584.23 429.962 583.6 442.552 580.09L442.532 580.08ZM558.672 478.44C567.112 457.57 569.342 445.3 569.182 419.81C569.022 400.37 568.382 394.32 565.042 381.57C545.922 310.83 489.212 264.31 412.102 256.51L401.272 255.39V332.66V409.93L458.312 439.88C489.542 456.29 523.472 474.29 533.512 479.71C543.552 485.13 552.312 489.75 552.952 489.75C553.432 489.91 555.982 484.65 558.692 478.44H558.672ZM259.952 479.4C268.872 474.46 276.842 469.84 277.632 469.2C279.062 467.77 289.902 430.01 303.602 378.55C310.772 350.99 312.202 343.98 310.772 341.59C304.402 331.55 317.782 320.4 326.702 328.53C329.732 331.24 330.682 339.36 327.972 340.96C327.172 341.44 326.382 343.19 326.382 344.78C326.382 347.49 348.212 431.13 349.002 431.77C349.322 431.93 358.882 427.15 370.512 421.1L391.542 410.11V334.91C391.542 293.49 391.062 258.76 390.272 257.64C387.242 252.86 342.632 262.26 320.812 272.3C275.722 293.17 243.222 331.57 228.882 380.95C225.692 391.78 225.222 397.2 225.222 419.82C225.222 442.12 225.702 447.86 228.722 458.06C233.182 473.2 239.712 488.33 242.102 488.33C243.062 488.33 251.022 484.35 259.942 479.41L259.952 479.4ZM313.002 452.16C322.562 447.22 330.682 442.92 331.162 442.6C332.282 441.48 322.722 434.16 320.172 434.16C319.052 434.16 312.842 437.51 306.472 441.49C296.432 447.86 294.522 449.77 293.252 455.03C292.132 459.65 292.132 461.24 293.572 461.24C294.692 461.24 303.452 457.26 313.012 452.16H313.002ZM312.042 429.22C312.042 427.47 305.352 423.01 302.962 423.01C301.052 423.01 297.702 432.25 297.702 437.67C297.702 440.06 298.972 439.58 304.872 435.44C308.852 432.57 312.042 429.86 312.042 429.23V429.22ZM339.122 435.11C339.122 431.13 335.622 423 333.862 423C331.952 423 326.372 427.78 326.372 429.53C326.372 430.8 335.932 437.34 338.002 437.34C338.642 437.34 339.122 436.38 339.122 435.11ZM326.692 420.45C330.042 418.06 332.742 415.83 332.742 415.19C332.582 413.76 320.472 405.47 318.402 405.47C317.282 405.47 313.622 407.7 310.272 410.41L304.062 415.35L309.952 419.81C317.602 425.55 319.192 425.55 326.682 420.45H326.692ZM323.662 386.99C318.242 382.53 318.562 382.53 313.622 386.51L309.642 389.86L314.102 393.68L318.562 397.5L323.502 394.15L328.282 390.65L323.662 386.99Z" fill="#053A6A"/>
<path d="M386.932 557.3C382.472 555.39 373.552 554.59 344.232 553.95L307.112 553.15L308.072 546.62C309.982 535.31 321.932 484.49 323.522 481.62C324.322 480.03 325.912 478.75 327.182 478.75C328.452 478.75 330.212 477.32 331.162 475.56C332.122 473.81 333.872 472.37 335.142 472.37C336.412 472.37 338.332 470.46 339.442 468.07C341.512 463.61 341.672 463.61 358.242 463.61C375.452 463.61 380.862 465.04 393.612 473.33C397.752 476.2 398.072 476.2 401.582 472.85C408.912 466 419.742 462.49 433.922 462.49C449.372 462.49 453.832 463.61 453.832 467.43C453.832 469.02 455.582 471.09 457.812 472.05C460.042 473.17 462.272 475.08 462.752 476.35C463.392 477.62 464.662 478.74 465.782 478.74C466.902 478.74 468.492 479.7 469.442 480.81C471.352 483.04 484.102 541.83 484.102 548.52V553.14L447.782 553.94C418.152 554.58 410.502 555.21 406.042 557.29C399.512 560.64 394.092 560.64 386.922 557.29L386.932 557.3ZM472.962 542.01C472.962 537.23 430.742 533.73 426.922 538.35C425.492 540.1 427.722 540.58 441.422 540.74C450.502 540.9 460.702 541.7 464.202 542.33C467.702 543.13 471.052 543.76 471.852 543.92C472.492 543.92 472.972 543.12 472.972 542.01H472.962ZM374.822 540.1C367.812 537.07 351.082 534.52 345.352 535.64C342.802 536.12 339.932 537.55 338.822 538.83C337.232 540.74 338.342 541.06 346.472 540.1C351.572 539.62 360.172 539.78 365.432 540.58C378.812 542.65 380.572 542.49 374.832 540.1H374.822ZM393.622 510.15C392.822 477.49 392.982 478.13 380.082 471.6C373.232 468.25 369.722 467.62 358.412 467.62H344.712L337.862 499.16C334.042 516.37 331.012 531.02 331.172 531.5C331.172 531.98 334.992 531.82 339.612 531.02C353.472 528.79 375.622 532.93 388.522 540.1C391.072 541.37 392.822 541.69 393.462 540.58C394.102 539.78 394.102 525.92 393.622 510.15ZM414.972 541.06C412.262 539.94 412.262 539.63 416.242 536.44C421.662 532.3 430.102 530.86 447.942 531.66C456.382 531.98 461.802 531.5 461.802 530.54C461.802 529.74 458.772 515.25 455.112 498.36L448.262 467.77L441.092 466.81C427.072 464.9 408.272 471.11 401.422 479.71C398.232 483.69 398.072 485.92 398.072 512.21C398.072 527.66 398.392 540.73 398.712 541.05C399.192 541.37 403.652 541.85 408.752 541.85C413.852 542.01 416.562 541.69 414.962 541.05L414.972 541.06Z" fill="#053A6A"/>
<path d="M433.292 419.49C433.292 418.37 433.932 415.99 434.722 414.23C436.152 411.2 436.152 411.2 437.272 414.55C438.232 417.9 438.862 418.05 448.102 417.1C458.302 416.14 461.962 415.03 455.112 415.03C451.452 415.03 450.812 414.23 449.852 408.66C449.212 405.31 449.212 401.65 449.852 400.69C451.442 398.14 444.752 398.78 442.042 401.65C440.612 402.92 439.492 403.72 439.492 403.4C439.492 401.65 446.182 387.95 447.462 387.15C448.262 386.67 452.562 388.42 457.182 391.13C461.642 393.84 465.622 395.75 466.102 395.43C466.422 394.95 463.552 392.88 459.732 390.65C444.592 381.73 433.442 363.73 432.012 345.88C431.212 336.16 434.242 324.21 437.592 324.21C438.392 324.21 443.332 327.4 448.422 331.54C454.952 336.48 458.782 338.39 461.012 337.75C462.762 337.27 469.933 336.48 476.943 336C487.453 335.2 490.322 334.25 493.352 331.22C496.382 328.03 497.492 327.72 500.842 329.31C503.072 330.27 504.822 331.86 504.822 332.81C504.662 335.36 500.842 340.14 498.772 340.14C497.972 340.14 493.352 344.28 488.892 349.22L480.452 358.3L489.052 365.95L497.652 373.6L498.132 368.82C499.092 360.22 503.232 364.2 503.232 373.6C503.232 376.95 505.142 379.65 510.402 384.43C514.382 387.93 517.572 391.44 517.572 392.4C517.572 393.2 513.752 395.59 509.292 397.5C501.962 400.69 499.092 401 486.992 400.21C471.062 399.25 471.062 399.09 476.162 411.04C477.912 415.18 479.352 419.17 479.352 419.96C479.352 420.76 469.153 421.39 456.253 421.39C438.733 421.39 433.153 420.91 433.313 419.48L433.292 419.49ZM491.282 338.72C490.162 337.6 467.222 340.31 464.992 341.91C463.082 343.03 464.032 344.62 469.772 349.72L476.943 356.09L484.432 347.65C488.412 343.19 491.602 339.05 491.282 338.73V338.72Z" fill="#053A6A"/>
<path d="M511.832 335.85C509.602 328.04 506.732 324.86 500.362 322.95C490.322 319.6 492.392 315.3 502.752 318.17C509.282 319.92 515.972 327.89 515.972 333.94C515.972 339.04 513.262 340.31 511.832 335.85Z" fill="#053A6A"/>
<path d="M520.752 331.39C518.202 322.15 509.282 313.87 500.202 312.27C493.512 311.15 491.762 308.92 496.062 307.33C507.692 302.87 527.132 320.87 527.132 336.01C527.132 341.43 522.672 338.24 520.762 331.39H520.752Z" fill="#053A6A"/>
<path d="M282.902 360.86C276.532 353.37 273.342 343.02 274.142 333.14C275.102 322.15 281.472 309.24 286.252 308.61C290.712 307.97 290.552 308.45 285.932 315.46C277.172 328.21 277.492 344.14 286.732 356.72C293.422 365.96 290.082 369.47 282.912 360.86H282.902Z" fill="#053A6A"/>
<path d="M348.692 364.05C348.692 363.09 350.602 359.43 353.152 355.77C356.972 349.88 357.452 347.64 357.452 336.17C357.452 324.54 356.972 322.47 352.992 316.41C350.122 312.27 348.852 308.6 349.492 307.01C350.452 304.78 351.402 305.26 355.072 309.72C366.862 323.74 367.502 345.57 356.662 361.02C353.312 365.48 348.692 367.23 348.692 364.05Z" fill="#053A6A"/>
<path d="M340.732 355.12C340.732 353.53 341.852 351.14 343.282 349.54C346.632 345.88 348.062 333.77 345.832 327.55C344.562 324.05 344.562 322.45 345.832 321.66C352.362 317.68 354.432 342.37 348.382 351.29C344.082 357.5 340.732 359.1 340.732 355.11V355.12Z" fill="#053A6A"/>
<path d="M289.433 350.18C284.013 341.42 284.333 328.51 290.233 319.59C297.243 308.92 300.903 312.26 294.373 323.41C291.663 327.87 291.183 330.9 291.663 337.75C292.143 342.69 293.572 347.79 295.012 349.38C298.362 353.04 298.513 356.07 295.493 356.07C294.223 356.07 291.513 353.36 289.443 350.18H289.433Z" fill="#053A6A"/>
<path d="M300.262 346.2C295.802 339.99 298.192 322.62 303.292 322.62C306.642 322.62 306.952 324.37 304.722 328.67C301.852 334.09 301.852 337.59 304.882 343.17C308.382 350.02 304.562 352.41 300.262 346.2Z" fill="#053A6A"/>
<path d="M332.442 348.75C331.802 348.27 332.442 346.04 333.712 343.65C336.582 338.07 336.582 332.18 333.552 328.04C331.162 324.54 331.802 322.62 335.462 322.62C338.652 322.62 342.632 332.98 341.352 338.23C339.442 346.2 334.982 351.45 332.432 348.74L332.442 348.75Z" fill="#053A6A"/>
<path d="M86.1423 788.299C83.4323 787.179 77.8623 776.029 77.8623 771.729C77.8623 769.819 78.3423 768.699 78.9823 769.179C79.4623 769.819 81.2123 769.18 82.6423 767.91C85.1923 765.52 85.5123 765.679 86.4623 769.819C88.2123 776.829 91.8823 781.449 95.8623 781.609H99.3623L95.8623 783.04C91.8823 784.63 91.0823 787.179 94.2723 788.299C95.2323 788.779 94.4323 789.1 92.2023 789.1C89.9723 789.1 87.2623 788.779 86.1523 788.299H86.1423Z" fill="#053A6A"/>
<path d="M739.972 191.82C732.002 186.72 724.992 182.26 724.042 181.94C723.242 181.62 722.922 180.19 723.562 178.75C724.202 177 726.432 176.04 729.932 176.04C736.622 176.04 736.462 176.2 755.582 146.09C774.222 116.94 775.812 113.59 771.992 109.45C768.962 106.1 768.492 103.4 770.872 101.96C772.462 101 807.512 121.56 807.512 123.63C807.512 125.86 803.692 127.45 797.952 127.45C792.692 127.45 791.902 128.25 782.342 142.59C764.822 169.04 754.942 185.45 754.942 188.31C754.942 189.74 756.062 192.29 757.492 193.89C759.722 196.12 759.722 197.08 758.132 199.15C757.012 200.42 755.742 201.54 755.102 201.38C754.622 201.38 747.772 197.08 739.962 191.82H739.972Z" fill="#053A6A"/>
<path d="M28.7924 187.68C22.5824 179.55 22.2624 178.44 24.4924 176.21C26.4024 174.14 27.5224 174.14 29.7524 175.73C36.2824 180.35 44.5724 184.01 48.3924 184.01C57.3124 184.01 65.1224 176.52 65.1224 168.08C65.1224 166.49 63.2124 162.98 60.9824 160.27L56.8424 155.33H37.8824C21.9524 155.33 17.8124 154.85 12.5524 152.14C3.79242 147.68 -0.827577 138.44 0.122423 127.13C1.08242 115.82 7.13242 108.33 20.5124 101.64C37.0824 93.5099 37.0824 93.5099 43.4524 102.28C52.2124 114.23 50.1424 120.44 39.9524 112.64C32.9424 107.38 21.6324 108.34 16.2124 114.71C11.5924 119.97 11.5924 123.79 16.3724 129.37C20.1924 133.83 20.1924 133.83 40.7524 133.83C59.2324 133.83 61.6224 134.15 67.0424 137.49C78.5124 144.66 82.4924 160.75 76.1224 173.97C71.9824 182.57 65.2924 187.99 53.1824 192.93C39.1624 198.67 36.7724 198.19 28.8024 187.67L28.7924 187.68Z" fill="#053A6A"/>
<path d="M671.632 176.53C668.922 173.98 670.832 170 675.132 169.2C683.572 167.45 692.812 155.5 710.822 123.32C720.222 106.27 727.872 91.3 727.872 90.02C727.872 88.9 726.442 86.36 724.682 84.44C721.972 81.57 721.812 80.62 723.562 78.23C725.472 75.68 726.592 76 739.812 83.01C761.162 94.16 761.642 94.48 759.882 97.67C758.762 99.9 756.852 100.38 752.712 99.9C746.342 99.1 746.972 98.15 727.062 134.31C713.042 159.96 704.762 170.32 695.202 174.62C688.992 177.49 673.692 178.76 671.622 176.53H671.632Z" fill="#053A6A"/>
<path d="M93.1525 162.19C92.5125 160.76 93.3125 158.21 95.0625 156.3C98.8825 152 98.8825 151.68 83.4325 115.52C71.4825 87.9599 70.8425 86.8399 66.5425 86.8399C63.6725 86.8399 61.4425 85.7199 60.3325 83.6499C58.4225 80.1499 55.7125 81.5799 89.0125 67.2399C107.173 59.4299 116.253 58.3199 124.063 62.6199C135.213 68.6699 139.353 84.9199 132.663 96.3999L129.633 101.5L134.413 105.32C145.883 114.56 160.863 123.96 165.803 124.92C173.773 126.51 172.973 131.45 163.893 134.96C159.913 136.39 154.493 137.67 151.783 137.67C146.523 137.83 135.693 131.62 123.743 121.58C114.823 114.25 108.763 113.77 109.243 120.31C109.243 122.54 111.473 128.75 114.023 133.85C118.163 142.77 118.803 143.41 124.533 143.89C131.703 144.53 132.663 148.83 126.123 151.7C113.853 156.96 95.0525 164.92 94.5825 164.92C94.4225 164.92 93.6225 163.8 93.1525 162.21V162.19ZM112.753 104.52C116.733 100.86 117.693 98.6299 117.693 93.2099C117.693 82.3799 110.843 72.4999 103.193 72.4999C97.1425 72.4999 90.6025 75.2099 90.6025 77.5999C90.6025 78.7199 93.3125 86.1999 96.4925 94.3299C103.023 110.9 104.773 112.01 112.743 104.53L112.753 104.52Z" fill="#053A6A"/>
<path d="M660.472 146.26C647.882 140.84 643.422 138.13 643.742 136.38C644.062 134.95 646.132 133.67 648.362 133.35C652.982 132.87 654.572 128.57 654.572 117.58C654.572 112.64 653.932 111.84 647.562 108.98C634.342 103.24 631.792 103.24 626.212 110.1C620.632 116.79 619.842 120.46 623.502 123.48C626.212 125.71 626.692 129.22 624.462 130.65C623.192 131.29 601.362 123.64 597.062 120.93C594.832 119.66 597.702 113.76 600.252 114.24C601.682 114.4 604.232 114.08 606.142 113.44C608.852 112.48 652.342 65.9597 662.382 53.2197C664.932 49.8697 666.522 49.2397 670.662 49.8697L675.762 50.6697L674.642 94.9597L673.372 139.25L677.672 143.55C681.652 147.53 682.452 152.15 679.262 153.11C678.462 153.43 669.862 150.24 660.462 146.26H660.472ZM655.212 96.2297C655.692 93.5197 656.172 88.4197 656.172 85.0797C656.172 77.1097 652.032 76.6397 646.452 83.9597C637.692 95.7497 637.692 94.4697 645.332 97.9797C654.092 101.96 653.932 101.96 655.212 96.2297Z" fill="#053A6A"/>
<path d="M174.562 128.74C172.492 126.67 173.442 122.69 176.632 120.61C178.382 119.49 179.822 117.42 179.822 115.99C179.822 113.44 163.892 60.2304 160.382 51.4704C159.112 47.9704 157.672 47.0104 154.172 47.0104C150.822 47.0104 149.552 46.2104 149.552 44.1404C149.552 42.0704 151.942 40.4804 157.202 38.5604C166.122 35.3704 208.342 23.1104 210.252 23.1104C211.212 23.1104 218.062 41.9103 218.062 44.7803C218.062 45.1003 216.472 45.4204 214.562 45.4204C212.172 45.4204 209.942 43.6704 208.192 40.6404C205.002 35.0604 199.752 34.4304 187.802 38.0904C179.362 40.6404 179.202 41.5903 184.612 59.6003C187.962 70.5903 188.432 71.0704 192.262 70.1104C202.462 67.5604 206.602 64.8504 207.712 59.9104C208.352 56.5604 209.782 54.9704 211.692 54.9704C214.562 54.9704 216.472 59.7504 220.452 76.0004C222.042 82.0504 217.102 83.9703 213.442 79.0303C211.052 76.0003 209.782 75.5304 204.362 76.6404C195.922 78.0704 192.572 79.9904 192.572 83.3304C192.572 84.7604 194.482 91.6104 196.712 98.3104C201.332 112.33 201.812 112.65 215.512 108.51C225.712 105.48 228.892 102.14 230.172 93.6903C231.132 86.8403 234.472 83.3304 237.022 86.2004C237.822 87.0004 238.772 92.8903 239.092 99.1003L239.892 110.73L230.972 113.28C207.872 119.97 189.552 125.55 183.812 127.62C176.322 130.17 176.002 130.17 174.572 128.74H174.562Z" fill="#053A6A"/>
<path d="M555.802 110.89C529.992 104.36 526.332 103.08 526.332 100.38C526.332 97.9902 527.602 97.0302 531.432 96.7202C537.322 96.0802 537.322 95.9202 548.482 53.3902C555.332 27.5802 555.492 25.1902 550.232 22.8002C546.252 21.0502 545.292 18.9802 547.522 15.7902C548.482 14.2002 560.422 16.2702 584.162 22.3202C586.232 22.8002 587.662 24.3902 587.662 26.3002C587.662 28.6902 586.392 29.3302 581.772 29.8002L575.882 30.2802L567.442 61.3502C562.822 78.4002 559.002 94.6502 559.002 97.5102C559.002 102.13 559.642 102.77 565.372 104.36C578.592 107.86 582.892 107.07 589.112 100.06C594.532 94.0102 598.832 92.5702 598.832 96.8702C598.832 97.9902 596.922 103.24 594.692 108.82C591.822 115.35 589.592 118.7 587.842 118.54C586.412 118.38 572.072 115.04 555.822 110.89H555.802Z" fill="#053A6A"/>
<path d="M249.922 104.84C249.922 103.25 251.832 100.7 254.062 98.7898L258.042 95.5998L251.512 62.9398C243.862 24.3898 243.382 23.1098 237.972 23.1098C232.232 23.1098 232.392 17.3698 238.452 16.0998C243.072 15.1398 296.282 5.58984 296.922 5.58984C297.242 5.58984 298.192 9.40984 299.312 13.8698C300.272 18.4898 301.542 23.5898 302.022 25.1798C303.292 29.9598 297.562 28.2098 291.982 22.1498C286.882 16.7298 286.402 16.5698 279.082 17.6898C265.062 19.7598 264.102 20.5598 265.382 28.1998C265.862 32.0198 267.132 38.7098 268.252 43.0198L270.002 50.9898L276.212 50.3498C286.252 49.5498 289.752 47.4798 290.712 42.2198C292.302 34.2498 297.082 35.8498 298.992 45.0898C303.132 64.2098 303.132 64.5298 299.472 64.5298C297.722 64.5298 295.492 63.0998 294.532 61.3398C291.662 56.0798 272.232 57.3598 272.232 62.7698C272.232 66.5898 278.442 90.4898 279.882 91.9198C281.792 93.8298 300.592 89.2098 304.102 86.0298C305.852 84.4398 308.082 80.4498 308.882 76.9498C310.002 72.9698 311.432 70.8998 313.342 70.8998C315.732 70.8998 316.052 72.6498 316.052 83.1698V95.4398L307.292 97.3498C302.512 98.4698 296.302 99.4198 293.432 99.5798C290.722 99.5798 287.852 100.38 287.382 101.17C286.902 102.13 283.402 102.76 279.732 102.76C275.912 102.76 268.742 103.88 263.802 105.15C252.012 108.18 249.942 108.18 249.942 104.83L249.922 104.84Z" fill="#053A6A"/>
<path d="M501.642 99.74C488.262 97.67 484.912 96.71 484.432 94.48C484.112 92.57 485.392 91.13 487.932 90.02C492.712 88.27 492.872 87.31 489.842 76.16C488.572 71.7 488.092 67.56 488.572 67.08C489.052 66.6 487.452 66.12 485.072 66.12C482.682 66.12 481.092 65.48 481.572 64.69C483.322 61.98 477.912 59.43 471.852 60.23C465.322 61.19 457.192 68.99 457.352 73.93C457.512 75.36 457.032 78.07 456.392 79.98C455.432 83.01 455.912 83.96 459.262 85.24C461.972 86.2 463.402 87.95 463.402 90.18C463.402 93.53 462.922 93.53 451.132 92.57C434.562 90.98 432.812 90.5 433.452 86.36C433.772 83.97 435.202 82.7 438.072 82.38C442.692 81.9 444.602 78.72 470.892 29.97C484.592 4.64 485.072 4 490.172 4C492.882 4 495.272 4.16 495.272 4.48C495.272 4.64 499.572 23.76 504.672 46.86C513.432 86.37 514.232 89.24 518.692 93.06C523.312 97.04 524.272 102.94 520.282 102.62C519.162 102.46 510.882 101.19 501.642 99.75V99.74ZM485.712 56.09C485.712 49.4 481.892 35.86 479.972 35.86C478.702 35.86 475.672 40.16 472.962 45.42C467.382 56.41 466.912 55.93 483.792 58.01C484.752 58.01 485.702 57.21 485.702 56.1L485.712 56.09Z" fill="#053A6A"/>
<path d="M353.472 86.99C353.472 84.76 354.432 83.64 356.502 83.64C363.032 83.64 363.832 79.98 364.312 46.04C364.952 11.95 364.152 7.8 357.942 6.85C355.552 6.53 354.282 5.26 354.282 3.19C354.282 0.159999 355.402 0 382.162 0C405.742 0 410.842 0.479999 415.142 2.87C421.512 6.37 425.182 13.07 425.182 21.51C425.182 26.93 424.062 29.16 418.652 35.05C412.762 41.42 412.442 42.22 415.462 42.22C417.372 42.22 421.352 44.61 424.542 47.48C435.692 57.68 433.302 74.25 418.962 84.12L411.632 89.22L382.632 89.7C354.112 90.18 353.482 90.18 353.482 86.99H353.472ZM404.612 77.43C408.592 73.45 409.232 71.54 409.232 64.53C409.232 57.52 408.592 55.61 404.452 51.63C400.312 47.49 398.712 46.85 392.182 47.33L384.532 47.81V62.31C384.532 79.04 386.122 82.07 394.412 82.07C398.392 82.07 401.262 80.8 404.612 77.45V77.43ZM401.582 34.26C405.562 29.32 405.402 18.33 401.102 12.91C398.392 9.56 396.482 8.77 390.742 8.77H383.732V22.79C383.732 30.6 384.212 37.45 385.002 38.08C387.232 40.47 398.702 37.76 401.572 34.26H401.582Z" fill="#053A6A"/>
<path d="M172.939 749.143L166.731 750.806L168.848 720.874L176.313 718.874L193.099 743.741L186.891 745.404L174.365 726.106L174.151 726.164L172.939 749.143ZM169.665 738.478L184.327 734.549L185.538 739.071L170.877 742.999L169.665 738.478ZM195.601 713.706L202.942 741.103L197.149 742.655L189.808 715.258L195.601 713.706ZM201.12 712.227L208.264 710.313L220.741 726.699L221.062 726.613L223.675 706.184L230.818 704.27L238.159 731.667L232.541 733.172L227.763 715.34L227.535 715.401L225.187 734.999L221.361 736.024L209.511 720.159L209.284 720.22L214.08 738.119L208.461 739.624L201.12 712.227Z" fill="#053A6A"/>
<path d="M330.354 710H323.928L333.719 681.636H341.447L351.225 710H344.799L337.694 688.118H337.473L330.354 710ZM329.952 698.851H345.131V703.532H329.952V698.851ZM370.158 689.794C370.047 688.676 369.572 687.809 368.732 687.19C367.892 686.571 366.751 686.262 365.311 686.262C364.332 686.262 363.506 686.401 362.832 686.678C362.158 686.945 361.641 687.319 361.281 687.799C360.93 688.279 360.755 688.824 360.755 689.434C360.736 689.941 360.842 690.385 361.073 690.763C361.313 691.142 361.641 691.469 362.056 691.746C362.472 692.014 362.952 692.25 363.497 692.453C364.041 692.647 364.623 692.813 365.242 692.951L367.79 693.561C369.027 693.838 370.163 694.207 371.197 694.669C372.231 695.13 373.127 695.698 373.884 696.372C374.641 697.046 375.227 697.84 375.643 698.754C376.067 699.668 376.284 700.716 376.294 701.898C376.284 703.634 375.841 705.139 374.964 706.413C374.096 707.678 372.84 708.661 371.197 709.363C369.563 710.055 367.592 710.402 365.283 710.402C362.994 710.402 360.999 710.051 359.3 709.349C357.611 708.647 356.29 707.609 355.339 706.233C354.398 704.848 353.904 703.135 353.858 701.095H359.66C359.725 702.046 359.997 702.84 360.478 703.477C360.967 704.105 361.618 704.58 362.43 704.903C363.252 705.217 364.18 705.374 365.214 705.374C366.23 705.374 367.111 705.227 367.859 704.931C368.616 704.636 369.203 704.225 369.618 703.699C370.034 703.172 370.241 702.567 370.241 701.884C370.241 701.247 370.052 700.712 369.674 700.278C369.304 699.844 368.759 699.474 368.039 699.17C367.328 698.865 366.456 698.588 365.422 698.339L362.333 697.563C359.942 696.982 358.054 696.072 356.669 694.835C355.284 693.598 354.596 691.931 354.605 689.835C354.596 688.118 355.053 686.618 355.976 685.334C356.909 684.051 358.188 683.049 359.813 682.329C361.438 681.609 363.284 681.249 365.353 681.249C367.458 681.249 369.295 681.609 370.865 682.329C372.443 683.049 373.671 684.051 374.549 685.334C375.426 686.618 375.878 688.104 375.906 689.794H370.158ZM381.107 710V681.636H392.298C394.449 681.636 396.282 682.047 397.796 682.869C399.31 683.681 400.464 684.812 401.258 686.262C402.061 687.702 402.463 689.364 402.463 691.248C402.463 693.131 402.057 694.793 401.244 696.234C400.432 697.674 399.255 698.796 397.713 699.599C396.18 700.402 394.324 700.804 392.145 700.804H385.013V695.998H391.176C392.33 695.998 393.281 695.8 394.029 695.403C394.786 694.996 395.349 694.438 395.718 693.727C396.097 693.007 396.286 692.18 396.286 691.248C396.286 690.306 396.097 689.484 395.718 688.783C395.349 688.072 394.786 687.522 394.029 687.135C393.272 686.738 392.311 686.539 391.148 686.539H387.104V710H381.107ZM413.135 681.636V710H407.138V681.636H413.135ZM418.849 710V681.636H430.039C432.181 681.636 434.009 682.02 435.524 682.786C437.047 683.543 438.206 684.619 439 686.013C439.803 687.398 440.205 689.027 440.205 690.902C440.205 692.785 439.798 694.406 438.986 695.763C438.173 697.111 436.996 698.145 435.454 698.865C433.922 699.585 432.066 699.945 429.887 699.945H422.394V695.126H428.917C430.062 695.126 431.013 694.969 431.77 694.655C432.527 694.341 433.091 693.87 433.46 693.242C433.839 692.614 434.028 691.834 434.028 690.902C434.028 689.96 433.839 689.166 433.46 688.52C433.091 687.873 432.523 687.384 431.757 687.051C430.999 686.71 430.044 686.539 428.89 686.539H424.846V710H418.849ZM434.166 697.092L441.216 710H434.596L427.699 697.092H434.166ZM445.223 710V681.636H464.335V686.581H451.219V693.339H463.352V698.283H451.219V705.056H464.39V710H445.223Z" fill="#053A6A"/>
<path d="M537.463 694.412L528.785 721.415L523.076 719.58L531.754 692.577L537.463 694.412ZM565.49 703.419L556.811 730.422L551.88 728.837L545.594 708.066L545.396 708.002L539.934 724.998L534.225 723.163L542.903 696.16L547.914 697.77L554.111 718.499L554.349 718.575L559.807 701.593L565.49 703.419ZM583.102 717.648C583.338 716.55 583.151 715.578 582.541 714.732C581.93 713.886 580.939 713.243 579.568 712.802C578.636 712.503 577.807 712.382 577.08 712.439C576.357 712.488 575.75 712.686 575.26 713.033C574.78 713.382 574.446 713.847 574.259 714.427C574.086 714.905 574.052 715.36 574.156 715.791C574.269 716.225 574.48 716.637 574.791 717.028C575.105 717.41 575.49 717.781 575.946 718.141C576.406 718.492 576.909 718.828 577.455 719.149L579.695 720.509C580.788 721.152 581.756 721.851 582.599 722.607C583.443 723.363 584.121 724.177 584.636 725.05C585.151 725.924 585.466 726.859 585.582 727.856C585.706 728.857 585.592 729.921 585.239 731.049C584.7 732.698 583.817 733.996 582.592 734.94C581.379 735.879 579.883 736.431 578.103 736.596C576.336 736.755 574.353 736.482 572.155 735.776C569.975 735.075 568.184 734.131 566.781 732.943C565.388 731.758 564.448 730.365 563.964 728.764C563.491 727.158 563.545 725.376 564.125 723.419L569.65 725.195C569.42 726.12 569.437 726.959 569.699 727.713C569.973 728.46 570.447 729.112 571.122 729.668C571.808 730.218 572.643 730.652 573.628 730.968C574.595 731.279 575.479 731.408 576.282 731.356C577.093 731.306 577.777 731.094 578.333 730.72C578.89 730.346 579.273 729.834 579.482 729.184C579.677 728.577 579.66 728.009 579.433 727.48C579.214 726.954 578.808 726.436 578.216 725.926C577.632 725.418 576.886 724.887 575.978 724.334L573.275 722.65C571.176 721.365 569.657 719.921 568.717 718.32C567.777 716.718 567.632 714.921 568.282 712.928C568.799 711.291 569.693 710.002 570.965 709.063C572.245 708.126 573.769 707.564 575.537 707.375C577.304 707.187 579.172 707.409 581.141 708.042C583.145 708.686 584.785 709.591 586.058 710.757C587.341 711.926 588.204 713.255 588.646 714.745C589.089 716.235 589.064 717.789 588.574 719.406L583.102 717.648ZM587.343 740.235L596.022 713.232L606.675 716.655C608.724 717.314 610.343 718.266 611.533 719.511C612.726 720.748 613.478 722.178 613.791 723.801C614.115 725.418 613.989 727.123 613.413 728.916C612.836 730.71 611.941 732.167 610.727 733.29C609.512 734.413 608.048 735.121 606.335 735.414C604.63 735.709 602.74 735.524 600.666 734.857L593.875 732.675L595.346 728.1L601.213 729.985C602.312 730.338 603.278 730.44 604.111 730.291C604.957 730.136 605.664 729.777 606.233 729.213C606.814 728.643 607.247 727.914 607.532 727.026C607.82 726.13 607.891 725.29 607.746 724.506C607.612 723.716 607.243 723.021 606.641 722.42C606.042 721.81 605.189 721.327 604.081 720.971L600.231 719.734L593.052 742.07L587.343 740.235ZM626.514 723.031L617.835 750.034L612.126 748.2L620.804 721.196L626.514 723.031ZM623.275 751.783L631.953 724.779L642.607 728.203C644.646 728.859 646.27 729.783 647.477 730.976C648.695 732.163 649.469 733.541 649.799 735.112C650.14 736.676 650.024 738.35 649.45 740.135C648.874 741.928 647.991 743.346 646.802 744.39C645.616 745.424 644.179 746.049 642.491 746.263C640.811 746.479 638.934 746.254 636.86 745.588L629.727 743.295L631.201 738.707L637.412 740.703C638.502 741.053 639.455 741.194 640.272 741.127C641.089 741.06 641.769 740.784 642.313 740.299C642.865 739.817 643.284 739.132 643.569 738.245C643.858 737.348 643.92 736.534 643.758 735.803C643.604 735.075 643.213 734.435 642.585 733.884C641.969 733.327 641.111 732.872 640.013 732.519L636.162 731.282L628.984 753.618L623.275 751.783ZM641.807 744.181L644.569 758.626L638.266 756.601L635.65 742.202L641.807 744.181ZM648.384 759.852L657.062 732.849L675.258 738.697L673.745 743.404L661.259 739.391L659.191 745.825L670.741 749.538L669.228 754.245L657.678 750.533L655.606 756.98L668.145 761.01L666.632 765.717L648.384 759.852Z" fill="#053A6A"/>
</svg>
